<svg width="35" height="37" viewBox="0 0 35 37" fill="none" xmlns="http://www.w3.org/2000/svg">
<path d="M27.0381 27.5635H9.5918L10.4678 25.7793L25.0225 25.7529C25.5146 25.7529 25.9365 25.4014 26.0244 24.915L28.04 13.6328C28.0928 13.3369 28.0137 13.0322 27.8203 12.8008C27.7247 12.6869 27.6055 12.5951 27.471 12.5319C27.3364 12.4686 27.1897 12.4354 27.041 12.4346L8.52539 12.373L8.36719 11.6289C8.26758 11.1543 7.83984 10.8086 7.35352 10.8086H2.82715C2.55287 10.8086 2.28982 10.9176 2.09587 11.1115C1.90193 11.3054 1.79297 11.5685 1.79297 11.8428C1.79297 12.1171 1.90193 12.3801 2.09587 12.574C2.28982 12.768 2.55287 12.877 2.82715 12.877H6.51562L7.20703 16.1641L8.90918 24.4053L6.71777 27.9824C6.60397 28.136 6.53543 28.3184 6.51989 28.5089C6.50436 28.6995 6.54246 28.8905 6.62988 29.0605C6.80566 29.4092 7.16016 29.6289 7.55273 29.6289H9.39258C9.00035 30.1499 8.78849 30.7844 8.78906 31.4365C8.78906 33.0947 10.1367 34.4424 11.7949 34.4424C13.4531 34.4424 14.8008 33.0947 14.8008 31.4365C14.8008 30.7832 14.584 30.1475 14.1973 29.6289H18.917C18.5248 30.1499 18.3129 30.7844 18.3135 31.4365C18.3135 33.0947 19.6611 34.4424 21.3193 34.4424C22.9775 34.4424 24.3252 33.0947 24.3252 31.4365C24.3252 30.7832 24.1084 30.1475 23.7217 29.6289H27.041C27.6094 29.6289 28.0752 29.166 28.0752 28.5947C28.0735 28.3207 27.9635 28.0585 27.7692 27.8653C27.5749 27.6721 27.3121 27.5636 27.0381 27.5635ZM8.95606 14.4121L25.8252 14.4678L24.1728 23.7197L10.9219 23.7432L8.95606 14.4121ZM11.7949 32.3623C11.2852 32.3623 10.8691 31.9463 10.8691 31.4365C10.8691 30.9268 11.2852 30.5107 11.7949 30.5107C12.3047 30.5107 12.7207 30.9268 12.7207 31.4365C12.7207 31.6821 12.6232 31.9175 12.4495 32.0912C12.2759 32.2648 12.0405 32.3623 11.7949 32.3623ZM21.3193 32.3623C20.8096 32.3623 20.3936 31.9463 20.3936 31.4365C20.3936 30.9268 20.8096 30.5107 21.3193 30.5107C21.8291 30.5107 22.2451 30.9268 22.2451 31.4365C22.2451 31.6821 22.1476 31.9175 21.974 32.0912C21.8003 32.2648 21.5649 32.3623 21.3193 32.3623Z" fill="#9A9A9A"/>
<circle cx="26" cy="9" r="9" fill="#EF4444"/>
<path d="M23 9.38C23 8.004 23.224 6.932 23.672 6.164C24.12 5.388 24.904 5 26.024 5C27.136 5 27.916 5.388 28.364 6.164C28.812 6.932 29.036 8.004 29.036 9.38C29.036 10.78 28.812 11.868 28.364 12.644C27.916 13.42 27.136 13.808 26.024 13.808C24.904 13.808 24.12 13.42 23.672 12.644C23.224 11.868 23 10.78 23 9.38ZM27.956 9.38C27.956 8.684 27.908 8.096 27.812 7.616C27.724 7.128 27.536 6.736 27.248 6.44C26.968 6.144 26.56 5.996 26.024 5.996C25.48 5.996 25.064 6.144 24.776 6.44C24.496 6.736 24.308 7.128 24.212 7.616C24.124 8.096 24.08 8.684 24.08 9.38C24.08 10.1 24.124 10.704 24.212 11.192C24.308 11.68 24.496 12.072 24.776 12.368C25.064 12.664 25.48 12.812 26.024 12.812C26.56 12.812 26.968 12.664 27.248 12.368C27.536 12.072 27.724 11.68 27.812 11.192C27.908 10.704 27.956 10.1 27.956 9.38Z" fill="white" stroke="white"/>
</svg>
