<svg width="35" height="37" viewBox="0 0 35 37" fill="none" xmlns="http://www.w3.org/2000/svg">
<path d="M8.75 10.75C5.29875 10.75 2.5 13.52 2.5 16.9375C2.5 19.6962 3.59375 26.2437 14.36 32.8625C14.5529 32.9798 14.7743 33.0419 15 33.0419C15.2257 33.0419 15.4471 32.9798 15.64 32.8625C26.4063 26.2437 27.5 19.6962 27.5 16.9375C27.5 13.52 24.7013 10.75 21.25 10.75C17.7988 10.75 15 14.5 15 14.5C15 14.5 12.2013 10.75 8.75 10.75Z" stroke="#9A9A9A" stroke-width="2.5" stroke-linecap="round" stroke-linejoin="round"/>
<circle cx="26" cy="9" r="9" fill="#EF4444"/>
<path d="M23 9.38C23 8.004 23.224 6.932 23.672 6.164C24.12 5.388 24.904 5 26.024 5C27.136 5 27.916 5.388 28.364 6.164C28.812 6.932 29.036 8.004 29.036 9.38C29.036 10.78 28.812 11.868 28.364 12.644C27.916 13.42 27.136 13.808 26.024 13.808C24.904 13.808 24.12 13.42 23.672 12.644C23.224 11.868 23 10.78 23 9.38ZM27.956 9.38C27.956 8.684 27.908 8.096 27.812 7.616C27.724 7.128 27.536 6.736 27.248 6.44C26.968 6.144 26.56 5.996 26.024 5.996C25.48 5.996 25.064 6.144 24.776 6.44C24.496 6.736 24.308 7.128 24.212 7.616C24.124 8.096 24.08 8.684 24.08 9.38C24.08 10.1 24.124 10.704 24.212 11.192C24.308 11.68 24.496 12.072 24.776 12.368C25.064 12.664 25.48 12.812 26.024 12.812C26.56 12.812 26.968 12.664 27.248 12.368C27.536 12.072 27.724 11.68 27.812 11.192C27.908 10.704 27.956 10.1 27.956 9.38Z" fill="white" stroke="white"/>
</svg>
